<svg width="375" height="812" viewBox="0 0 375 812" fill="none" xmlns="http://www.w3.org/2000/svg">
<path d="M-436.046 695.523L-437 696.477V694.09L-436.046 695.523ZM25.7732 79.2428L65.3713 39.6214H104.015L143.613 0H141.228L103.538 37.7119H64.8942L27.2045 75.4239V39.144L66.3255 0H63.9401L26.2503 37.7119L-10.9624 0H-13.3478L25.7732 39.144V79.2428ZM-12.8707 77.8107L26.7274 117.432L65.8484 78.2881H104.492L142.659 40.0988L182.257 0.477366H179.872L142.182 38.1893L103.061 77.3333H64.4171L26.2503 115.523L-11.4395 77.8107V38.1893L-49.6064 0H-51.9918L-12.8707 39.144V77.8107ZM-436.046 116L-397.879 77.8107V39.144L-358.758 0H-360.666L-398.833 38.1893V76.856L-437 115.045V117.432L-399.31 155.144V193.811L-361.62 231.523H-397.879L-437 192.379V194.765L-399.31 232.477L-437 269.235V271.621L-398.356 232.955L-397.879 232.477H-357.804L-397.402 192.856V154.189L-436.046 116ZM336.356 425.811V386.189L298.189 348L336.356 309.811V271.144L374.046 233.432V231.045L335.879 192.856H297.235L258.114 153.712L218.993 192.856H180.349L140.751 232.477L141.705 233.432L180.826 194.288H219.47L257.637 156.099L295.804 194.288H334.448L372.138 232L333.971 270.189V308.856L296.281 346.568L295.327 347.523L296.281 348.477L333.971 386.189V425.333H336.356V425.811ZM374.046 115.045L373.092 116L374.046 116.955V115.045ZM334.448 76.856L294.85 116.477H334.925L335.402 116.955L374.046 155.621V153.235L336.356 115.523L374.046 77.8107V76.3786L334.925 115.523H298.666L336.356 77.8107V39.144L374.046 1.4321V0H373.092L334.925 38.1893V76.856H334.448ZM374.046 385.235L336.356 347.523L374.046 310.288V307.901L335.402 346.568L334.448 347.523L335.402 348.477L374.046 387.144V385.235ZM374.046 462.568L373.092 463.523L374.046 464.477V462.568ZM26.2503 0.954732L27.6815 0H25.2961L26.2503 0.954732ZM220.424 773.333V734.667L259.545 695.523L258.591 694.568L218.993 734.189V772.856L179.872 812H182.257L220.424 773.333ZM334.448 657.333V618.667L295.327 579.523L257.637 541.811L256.683 540.856L218.516 502.667H179.872L141.705 464.477L103.538 502.667H64.8942L25.2961 542.288V502.189L-12.8707 464H-49.1292L-11.4395 501.712V540.379L26.2503 578.09L64.4171 539.901H103.061L140.751 502.189L141.705 501.235L142.659 502.189L180.349 539.901H218.993L257.16 578.09L258.114 579.045L296.281 617.234V655.901L333.971 693.613L334.925 694.568L333.971 695.523L296.281 733.235V771.901L258.114 810.09H255.729L294.85 770.946V732.28L333.016 694.09L294.85 655.901V617.234L257.16 579.523L218.993 617.712H180.349L140.751 657.333V617.234L140.274 616.757L102.584 579.045H66.3255L104.015 616.757V655.424L141.705 693.136L179.872 654.946H218.516L258.114 615.325V655.424L258.591 655.901L296.281 693.613L297.235 694.568L296.281 695.523L258.591 733.235V771.901L220.424 810.09H218.039L257.16 770.946V732.28L295.327 694.09L257.637 656.379L219.947 694.09L218.993 695.045L180.826 733.235V771.901L142.659 810.09H140.274L179.395 770.946V732.28L217.085 694.568H180.826L143.136 732.28L142.659 732.757V770.946L143.136 771.424L142.659 771.901V772.379H142.182L104.492 810.09H102.107L141.228 770.946V734.667L103.538 772.379H64.8942L27.2045 810.09H24.8191L-12.8707 772.379H-51.5147L-89.6815 734.189L-90.6357 733.235L-128.326 695.523L-128.803 695.045H-168.878L-129.28 655.424V616.757L-91.1128 578.568L-129.28 540.379V501.712L-167.447 463.523L-168.401 462.568L-206.09 424.856L-245.212 385.712H-283.855L-322.022 347.523L-359.235 386.667V425.333L-397.402 463.523L-359.235 501.712V540.379L-321.545 578.09L-283.855 540.379V501.712L-246.166 464H-282.424L-320.591 502.189V541.333H-322.022V502.189L-360.666 463.523L-321.545 424.379V384.28L-281.947 423.901H-243.303L-205.136 462.091L-165.538 501.712V540.379L-126.417 579.523L-165.538 618.667V657.333L-203.705 695.523L-166.015 733.235H-127.371L-89.2045 771.424L-88.2503 772.379L-49.6064 811.045H-51.9918L-89.6815 773.333L-90.6357 772.379L-128.326 734.667H-166.969L-205.136 696.477L-243.303 734.667H-281.947L-320.114 772.856L-321.068 773.811L-358.758 811.523H-360.666L-322.022 772.856L-321.545 772.379V733.712L-283.378 695.523L-321.068 657.811L-359.235 696L-397.402 734.189V772.856L-435.569 811.045H-437V810.09L-399.31 772.379V733.712L-361.62 696H-397.879L-437 735.144V732.757L-398.833 694.568H-360.189L-359.712 694.09L-321.068 655.424L-281.947 694.568H-242.826V696H-281.947L-320.114 734.189V770.469L-282.424 732.757H-243.78L-206.09 695.045L-243.78 657.333H-282.424L-320.591 619.144L-358.758 657.333H-399.31V655.901H-360.189L-322.499 618.189L-321.545 617.234L-320.591 618.189L-282.901 655.901H-244.257L-206.09 694.09L-168.401 656.379V617.712L-130.234 579.523L-168.401 541.333V502.667L-206.09 464.955L-243.78 502.667V541.333L-281.47 579.045H-245.212L-207.045 540.856V501.712H-205.613V540.856L-167.924 578.568L-166.969 579.523L-205.613 618.189L-206.09 618.667V658.765L-245.689 619.144H-284.333L-322.499 580.955L-360.666 619.144H-397.879L-437 657.811V655.424L-398.833 617.234H-360.189L-322.499 579.523L-360.666 541.333V502.667L-398.356 464.955L-399.31 464L-360.666 424.856V386.189L-321.068 346.568L-281.947 385.712H-243.303L-205.136 423.901L-166.015 463.045H-127.371L-88.2503 502.189V540.856L-50.0834 579.045H-13.8249L-51.5147 541.333V502.667L-89.2045 464.955L-90.1587 464L-127.848 426.288H-166.492L-204.659 388.099L-243.303 349.432L-244.257 348.477H-282.901L-321.068 310.288L-358.758 348L-397.402 386.667V425.333L-435.569 463.523L-397.402 501.712V540.379L-357.804 580H-397.879L-437 619.144V616.757L-399.31 579.045L-437 542.288V539.901L-397.879 579.045H-361.62L-399.31 541.333V502.667L-437 464.955V462.568L-399.31 424.856V386.189L-361.62 348.477H-397.879L-437 387.621V385.235L-398.833 347.045H-360.189L-359.712 346.568L-322.022 308.856V272.576L-359.712 310.288H-397.879L-437 348.955V346.568L-398.833 308.379H-360.189L-320.591 268.757V308.856L-282.424 347.045H-246.166L-283.855 309.333V270.667L-321.545 232.955L-359.712 271.144H-397.879L-437 310.288V307.901L-398.833 269.712H-360.189L-322.499 232L-360.666 193.811V155.144L-398.356 117.432L-399.31 116.477L-398.356 115.523L-360.666 77.8107V38.1893L-322.499 0H-320.114L-359.235 39.144V77.8107L-397.402 116L-359.235 154.189V192.856L-321.545 230.568L-281.947 270.189V308.856L-242.826 348L-205.136 385.712L-166.015 424.856H-127.371L-89.2045 463.045L-49.6064 502.667V541.333L-10.0082 580.955H-50.5605L-88.7274 619.144V655.424L-51.0376 617.712H-12.3936L25.2961 580L-12.8707 541.811V503.144L-51.0376 464.955L-89.2045 426.765L-128.326 387.621H-166.969L-205.136 349.432L-244.734 309.811V271.144L-282.424 233.432L-322.022 193.811V155.144L-359.712 117.432L-360.666 116L-359.712 115.045L-322.022 77.3333V38.1893L-283.855 0H-281.47L-320.591 39.144V75.4239L-282.901 37.7119H-244.257L-206.568 0H-204.182L-166.015 38.1893V76.856L-128.326 114.568L-127.371 115.523L-128.326 116.477L-166.015 154.189V192.856L-204.182 231.045L-166.492 268.757H-127.848L-90.1587 306.469V270.189L-127.848 232.477L-128.326 232H-168.401L-128.803 192.379V153.712L-90.6357 115.523L-128.803 77.3333V39.144L-167.924 0H-165.538L-127.371 38.1893V76.856L-89.6815 114.568L-50.5605 153.712H-11.9166L25.7732 191.424V155.144L-12.3936 116.955V116.477H-51.0376L-90.1587 77.3333V39.144L-129.28 0H-126.894L-88.7274 38.1893V76.856L-50.5605 115.045H-14.302L-51.9918 77.3333V39.144L-90.6357 0H-88.2503L-50.0834 38.1893V76.856L-11.9166 115.045L26.2503 153.235L64.4171 115.045H103.061L103.538 114.568L142.182 75.9012L180.349 37.7119H218.993L256.683 0H259.068L219.47 39.6214H180.826L141.705 78.7654L104.015 116.477L64.8942 155.621V194.288L26.7274 232.477L64.4171 270.189H103.061L140.751 307.901V271.621L103.061 233.909L102.584 233.432H62.5088L102.107 193.811V155.144L141.705 115.523L179.872 77.3333H218.516L256.683 39.144L294.85 0.954732H297.235L258.114 40.0988V78.7654L218.993 117.909H180.349L142.182 156.099V192.379L179.872 154.667H218.516L257.637 115.523L295.327 77.8107V38.1893L333.494 0H335.879L297.712 39.144V77.8107L259.545 116L297.235 153.712H335.879L374.046 191.901V194.288L334.925 155.144H296.281L258.114 116.955L219.947 155.144H181.303L143.136 193.333L104.969 231.523L142.659 269.235L180.826 231.045H219.47L219.947 230.568L258.591 191.901L297.235 230.568L297.712 231.045H337.787L298.189 270.667V309.333L260.022 347.523L298.189 385.712V424.856L337.31 464L375 501.712V504.099L336.356 465.432L296.758 425.811V386.667L259.068 348.955L220.901 387.144H182.257L142.659 426.765V386.667L104.492 348.477H68.2339L105.924 386.189V424.856L143.613 462.568L181.78 424.379H220.424L260.022 384.757V424.856L299.143 464L337.31 502.189V540.856L375 578.568V580.955L335.402 541.333V502.667L297.712 464.955L259.068 426.288L221.378 464L259.545 502.189V540.856L260.022 541.333L297.712 579.045L337.31 618.667V657.333L375 695.045V697.432L337.31 735.144V773.811L299.143 812H296.758L335.879 772.856V734.189L374.046 696L334.448 657.333ZM141.705 192.856V154.189L180.826 115.045H219.47L257.637 76.856V40.5761L219.947 78.2881H181.303L142.182 117.432L104.492 155.144V193.811L66.8026 231.523H103.061L141.705 192.856ZM-242.826 579.523L-205.136 617.234L-167.447 579.523L-205.136 541.811L-242.826 579.523ZM-283.378 463.523L-321.068 425.811L-358.758 463.523L-321.068 501.235L-283.378 463.523ZM-320.114 579.523L-282.424 617.234H-243.78L-206.09 654.946V618.667L-244.257 580.477H-284.333L-244.734 540.856V502.189L-206.568 464L-244.257 426.288H-282.901L-320.591 388.576V424.856L-282.424 463.045H-242.349L-281.947 502.667V541.333L-320.114 579.523ZM-90.6357 656.856L-90.1587 617.712L-51.9918 579.523L-90.1587 541.333V502.667L-128.326 464.477H-164.584L-126.894 502.189V540.856L-89.2045 578.568L-88.2503 579.523L-127.371 618.667V657.333L-165.061 695.045H-128.803L-90.6357 656.856ZM142.182 617.234L179.872 579.523L142.182 541.811L104.492 579.523L142.182 617.234ZM27.6815 579.523L65.8484 617.712V656.379L105.447 696H65.3713L64.8942 696.477L27.2045 734.189L26.2503 735.144L25.2961 734.189L-12.3936 696.477H-51.5147V695.045H-12.3936L25.7732 656.856V620.576L-11.9166 658.288H-50.5605L-88.2503 696L-50.5605 733.712H-11.9166L26.2503 771.901L64.4171 733.712H103.061L140.751 696L102.584 657.811V619.144L62.9859 579.523H103.061L103.538 579.045L141.228 541.333L142.182 540.379L143.136 541.333L180.826 579.045H219.947V580.477H180.826L142.659 618.667V654.946L180.349 617.234H218.993L256.683 579.523L218.993 541.811H180.349L142.182 503.621L104.015 541.811H65.3713L27.6815 579.523ZM-10.9624 695.523L26.7274 733.235L64.4171 695.523L26.7274 657.811L-10.9624 695.523ZM26.2503 580.955L-11.9166 619.144H-50.5605L-88.7274 657.333L-89.6815 658.288L-127.371 696L-89.6815 733.712L-88.7274 734.667L-51.0376 772.379H-12.3936L25.7732 810.568L63.9401 772.379H102.584L140.751 734.189L141.705 733.235L179.872 695.045H218.516L218.993 694.568L256.683 656.856V620.576L218.993 658.288H180.349L142.659 696L141.705 696.955L103.538 735.144H64.8942L27.2045 772.856L26.2503 773.811L25.2961 772.856L-12.3936 735.144H-51.0376L-89.2045 696.955L-90.1587 696L-89.2045 695.045L-51.0376 656.856H-12.3936L27.2045 617.234V657.333L27.6815 657.811L65.3713 695.523H101.63L63.9401 657.811V619.144L26.2503 580.955ZM259.068 270.667V309.333L219.947 348.477H181.303L180.826 348.955L143.136 386.667V422.946L180.826 385.235H219.47L258.591 346.091L296.281 308.379V269.712L333.971 232H297.712L259.068 270.667ZM181.78 270.667V309.333L142.182 348.955L103.061 309.811H64.4171L26.7274 272.099V308.379L64.4171 346.091L64.8942 346.568H103.538L141.705 384.757L179.395 347.045L218.516 307.901V269.235L258.114 229.613L259.068 230.568L219.947 269.712V308.379L182.257 346.091H218.516L256.683 307.901V269.235L294.85 231.045L257.16 193.333L219.47 231.045L181.78 270.667ZM26.2503 232.955L-11.4395 270.667V309.333L-49.1292 347.045H-12.3936L25.7732 308.856V268.757L65.3713 308.379H104.015L142.182 346.568L179.872 308.856V270.189L217.562 232.477H181.303L143.136 270.667V310.765L103.538 271.144H64.8942L26.2503 232.955ZM-12.3936 348.955L-52.4689 348.477L-12.8707 308.856V270.189L25.2961 232L-12.3936 193.811H-51.0376L-88.7274 156.576V192.856L-51.0376 230.568L-50.5605 231.045H-10.4853L-50.0834 270.667V309.333L-88.2503 347.523L-50.5605 385.235H-11.9166L25.7732 422.946V386.667L-12.3936 348.955ZM-90.1587 192.856V152.757L-50.5605 192.379H-11.9166L26.2503 230.568L63.9401 192.856V154.189L101.63 116.477H65.3713L27.2045 154.667V194.765L-12.3936 155.144H-51.0376L-89.2045 116.955L-126.894 154.667V193.333L-164.584 231.045H-128.326L-90.1587 192.856ZM-89.2045 269.235L-51.5147 231.523L-89.2045 193.811L-126.894 232L-89.2045 269.235ZM-205.136 232.955L-244.734 193.333V154.667L-284.333 115.045H-244.257L-243.78 114.568L-206.09 76.856V40.5761L-243.78 78.2881H-282.424L-320.114 116L-281.947 154.189V192.856L-204.659 270.189L-166.492 308.379H-127.848L-89.6815 346.568L-51.9918 308.856V270.189L-14.302 232.477H-50.5605L-88.7274 270.667V310.765L-128.326 271.144H-166.969L-205.136 232.955ZM-242.826 116L-205.136 153.712L-167.447 116L-205.136 78.2881L-242.826 116ZM26.2503 501.235L63.9401 463.523L26.2503 425.811L25.7732 425.333L-12.3936 387.144H-51.0376L-89.2045 348.955L-128.326 309.811H-166.969L-204.659 272.099V308.379L-166.492 346.568H-127.848L-89.6815 384.757L-50.5605 423.901H-11.9166L27.6815 463.523L26.7274 464.477L-12.3936 425.811H-51.0376L-89.2045 387.621L-128.326 348.477H-166.969L-206.09 309.333V270.667L-283.378 193.333V154.667L-321.068 116.955L-322.022 116L-321.068 115.045L-282.901 76.856H-244.257L-204.659 37.2346V77.3333L-165.538 116.477L-204.659 155.621V194.765H-206.09V155.621L-244.257 117.432H-280.516L-242.826 155.144V193.811L-205.136 231.523L-167.447 193.811V155.144L-129.28 116.955L-167.447 78.7654V39.144L-205.136 1.4321L-243.303 39.6214H-281.947L-320.114 77.8107L-358.281 116L-320.114 154.189V192.856L-282.424 230.568L-242.826 270.189V308.856L-205.136 346.568L-166.015 385.712H-127.371L-89.2045 423.901L-50.5605 462.568V463.045H-11.9166L26.2503 501.235ZM141.228 463.523L103.061 425.333V386.667L63.9401 347.523L26.2503 310.288L-11.4395 348L26.7274 386.189V424.856L64.8942 463.045H101.153L63.463 425.333V386.667L24.3419 347.523L25.2961 346.568L64.8942 386.189V424.856L104.492 464.477H64.4171L63.9401 464.955L26.2503 502.667V538.946L63.9401 501.235H102.584L141.228 463.523ZM257.637 502.667L219.47 464.477H180.349V463.045H219.47L257.637 424.856V388.576L219.947 426.288H181.303L143.613 464L181.303 501.712H219.947L257.637 539.424V502.667ZM334.448 579.523L374.046 619.144V616.757L336.356 579.045L297.235 539.901V501.235L257.637 461.613L256.683 462.568L295.804 501.712V540.379L334.448 579.523ZM-166.492 771.901L-204.182 734.189L-205.136 733.235L-206.09 734.189L-243.78 771.901H-282.424L-322.022 811.523H-319.637L-281.947 773.811H-243.303L-205.136 735.621L-166.969 773.811H-128.326L-90.6357 811.523H-88.2503L-127.848 771.901H-166.492ZM374.046 773.811V771.424L334.448 811.045H336.833L374.046 773.811ZM-205.136 771.901L-206.09 772.856L-244.734 811.523H-242.349L-204.659 773.811L-166.969 811.523H-164.584L-203.228 772.856L-205.136 771.901ZM-437 230.568V232.955L-436.046 232L-437 230.568ZM-437 37.7119V40.0988L-397.402 0H-399.31L-437 37.7119ZM-359.235 773.333V734.667L-320.114 695.523L-321.068 694.568L-360.666 734.189V772.856L-399.31 811.523H-396.925L-359.235 773.333ZM-205.136 810.568L-206.09 811.523H-203.705L-205.136 810.568Z" fill="#626262" fill-opacity="0.5"/>
<path d="M-436.046 695.523L-437 696.477V694.09L-436.046 695.523ZM25.7732 79.2428L65.3713 39.6214H104.015L143.613 0H141.228L103.538 37.7119H64.8942L27.2045 75.4239V39.144L66.3255 0H63.9401L26.2503 37.7119L-10.9624 0H-13.3478L25.7732 39.144V79.2428ZM-12.8707 77.8107L26.7274 117.432L65.8484 78.2881H104.492L142.659 40.0988L182.257 0.477366H179.872L142.182 38.1893L103.061 77.3333H64.4171L26.2503 115.523L-11.4395 77.8107V38.1893L-49.6064 0H-51.9918L-12.8707 39.144V77.8107ZM-436.046 116L-397.879 77.8107V39.144L-358.758 0H-360.666L-398.833 38.1893V76.856L-437 115.045V117.432L-399.31 155.144V193.811L-361.62 231.523H-397.879L-437 192.379V194.765L-399.31 232.477L-437 269.235V271.621L-398.356 232.955L-397.879 232.477H-357.804L-397.402 192.856V154.189L-436.046 116ZM336.356 425.811V386.189L298.189 348L336.356 309.811V271.144L374.046 233.432V231.045L335.879 192.856H297.235L258.114 153.712L218.993 192.856H180.349L140.751 232.477L141.705 233.432L180.826 194.288H219.47L257.637 156.099L295.804 194.288H334.448L372.138 232L333.971 270.189V308.856L296.281 346.568L295.327 347.523L296.281 348.477L333.971 386.189V425.333H336.356V425.811ZM374.046 115.045L373.092 116L374.046 116.955V115.045ZM334.448 76.856L294.85 116.477H334.925L335.402 116.955L374.046 155.621V153.235L336.356 115.523L374.046 77.8107V76.3786L334.925 115.523H298.666L336.356 77.8107V39.144L374.046 1.4321V0H373.092L334.925 38.1893V76.856H334.448ZM374.046 385.235L336.356 347.523L374.046 310.288V307.901L335.402 346.568L334.448 347.523L335.402 348.477L374.046 387.144V385.235ZM374.046 462.568L373.092 463.523L374.046 464.477V462.568ZM26.2503 0.954732L27.6815 0H25.2961L26.2503 0.954732ZM220.424 773.333V734.667L259.545 695.523L258.591 694.568L218.993 734.189V772.856L179.872 812H182.257L220.424 773.333ZM334.448 657.333V618.667L295.327 579.523L257.637 541.811L256.683 540.856L218.516 502.667H179.872L141.705 464.477L103.538 502.667H64.8942L25.2961 542.288V502.189L-12.8707 464H-49.1292L-11.4395 501.712V540.379L26.2503 578.09L64.4171 539.901H103.061L140.751 502.189L141.705 501.235L142.659 502.189L180.349 539.901H218.993L257.16 578.09L258.114 579.045L296.281 617.234V655.901L333.971 693.613L334.925 694.568L333.971 695.523L296.281 733.235V771.901L258.114 810.09H255.729L294.85 770.946V732.28L333.016 694.09L294.85 655.901V617.234L257.16 579.523L218.993 617.712H180.349L140.751 657.333V617.234L140.274 616.757L102.584 579.045H66.3255L104.015 616.757V655.424L141.705 693.136L179.872 654.946H218.516L258.114 615.325V655.424L258.591 655.901L296.281 693.613L297.235 694.568L296.281 695.523L258.591 733.235V771.901L220.424 810.09H218.039L257.16 770.946V732.28L295.327 694.09L257.637 656.379L219.947 694.09L218.993 695.045L180.826 733.235V771.901L142.659 810.09H140.274L179.395 770.946V732.28L217.085 694.568H180.826L143.136 732.28L142.659 732.757V770.946L143.136 771.424L142.659 771.901V772.379H142.182L104.492 810.09H102.107L141.228 770.946V734.667L103.538 772.379H64.8942L27.2045 810.09H24.8191L-12.8707 772.379H-51.5147L-89.6815 734.189L-90.6357 733.235L-128.326 695.523L-128.803 695.045H-168.878L-129.28 655.424V616.757L-91.1128 578.568L-129.28 540.379V501.712L-167.447 463.523L-168.401 462.568L-206.09 424.856L-245.212 385.712H-283.855L-322.022 347.523L-359.235 386.667V425.333L-397.402 463.523L-359.235 501.712V540.379L-321.545 578.09L-283.855 540.379V501.712L-246.166 464H-282.424L-320.591 502.189V541.333H-322.022V502.189L-360.666 463.523L-321.545 424.379V384.28L-281.947 423.901H-243.303L-205.136 462.091L-165.538 501.712V540.379L-126.417 579.523L-165.538 618.667V657.333L-203.705 695.523L-166.015 733.235H-127.371L-89.2045 771.424L-88.2503 772.379L-49.6064 811.045H-51.9918L-89.6815 773.333L-90.6357 772.379L-128.326 734.667H-166.969L-205.136 696.477L-243.303 734.667H-281.947L-320.114 772.856L-321.068 773.811L-358.758 811.523H-360.666L-322.022 772.856L-321.545 772.379V733.712L-283.378 695.523L-321.068 657.811L-359.235 696L-397.402 734.189V772.856L-435.569 811.045H-437V810.09L-399.31 772.379V733.712L-361.62 696H-397.879L-437 735.144V732.757L-398.833 694.568H-360.189L-359.712 694.09L-321.068 655.424L-281.947 694.568H-242.826V696H-281.947L-320.114 734.189V770.469L-282.424 732.757H-243.78L-206.09 695.045L-243.78 657.333H-282.424L-320.591 619.144L-358.758 657.333H-399.31V655.901H-360.189L-322.499 618.189L-321.545 617.234L-320.591 618.189L-282.901 655.901H-244.257L-206.09 694.09L-168.401 656.379V617.712L-130.234 579.523L-168.401 541.333V502.667L-206.09 464.955L-243.78 502.667V541.333L-281.47 579.045H-245.212L-207.045 540.856V501.712H-205.613V540.856L-167.924 578.568L-166.969 579.523L-205.613 618.189L-206.09 618.667V658.765L-245.689 619.144H-284.333L-322.499 580.955L-360.666 619.144H-397.879L-437 657.811V655.424L-398.833 617.234H-360.189L-322.499 579.523L-360.666 541.333V502.667L-398.356 464.955L-399.31 464L-360.666 424.856V386.189L-321.068 346.568L-281.947 385.712H-243.303L-205.136 423.901L-166.015 463.045H-127.371L-88.2503 502.189V540.856L-50.0834 579.045H-13.8249L-51.5147 541.333V502.667L-89.2045 464.955L-90.1587 464L-127.848 426.288H-166.492L-204.659 388.099L-243.303 349.432L-244.257 348.477H-282.901L-321.068 310.288L-358.758 348L-397.402 386.667V425.333L-435.569 463.523L-397.402 501.712V540.379L-357.804 580H-397.879L-437 619.144V616.757L-399.31 579.045L-437 542.288V539.901L-397.879 579.045H-361.62L-399.31 541.333V502.667L-437 464.955V462.568L-399.31 424.856V386.189L-361.62 348.477H-397.879L-437 387.621V385.235L-398.833 347.045H-360.189L-359.712 346.568L-322.022 308.856V272.576L-359.712 310.288H-397.879L-437 348.955V346.568L-398.833 308.379H-360.189L-320.591 268.757V308.856L-282.424 347.045H-246.166L-283.855 309.333V270.667L-321.545 232.955L-359.712 271.144H-397.879L-437 310.288V307.901L-398.833 269.712H-360.189L-322.499 232L-360.666 193.811V155.144L-398.356 117.432L-399.31 116.477L-398.356 115.523L-360.666 77.8107V38.1893L-322.499 0H-320.114L-359.235 39.144V77.8107L-397.402 116L-359.235 154.189V192.856L-321.545 230.568L-281.947 270.189V308.856L-242.826 348L-205.136 385.712L-166.015 424.856H-127.371L-89.2045 463.045L-49.6064 502.667V541.333L-10.0082 580.955H-50.5605L-88.7274 619.144V655.424L-51.0376 617.712H-12.3936L25.2961 580L-12.8707 541.811V503.144L-51.0376 464.955L-89.2045 426.765L-128.326 387.621H-166.969L-205.136 349.432L-244.734 309.811V271.144L-282.424 233.432L-322.022 193.811V155.144L-359.712 117.432L-360.666 116L-359.712 115.045L-322.022 77.3333V38.1893L-283.855 0H-281.47L-320.591 39.144V75.4239L-282.901 37.7119H-244.257L-206.568 0H-204.182L-166.015 38.1893V76.856L-128.326 114.568L-127.371 115.523L-128.326 116.477L-166.015 154.189V192.856L-204.182 231.045L-166.492 268.757H-127.848L-90.1587 306.469V270.189L-127.848 232.477L-128.326 232H-168.401L-128.803 192.379V153.712L-90.6357 115.523L-128.803 77.3333V39.144L-167.924 0H-165.538L-127.371 38.1893V76.856L-89.6815 114.568L-50.5605 153.712H-11.9166L25.7732 191.424V155.144L-12.3936 116.955V116.477H-51.0376L-90.1587 77.3333V39.144L-129.28 0H-126.894L-88.7274 38.1893V76.856L-50.5605 115.045H-14.302L-51.9918 77.3333V39.144L-90.6357 0H-88.2503L-50.0834 38.1893V76.856L-11.9166 115.045L26.2503 153.235L64.4171 115.045H103.061L103.538 114.568L142.182 75.9012L180.349 37.7119H218.993L256.683 0H259.068L219.47 39.6214H180.826L141.705 78.7654L104.015 116.477L64.8942 155.621V194.288L26.7274 232.477L64.4171 270.189H103.061L140.751 307.901V271.621L103.061 233.909L102.584 233.432H62.5088L102.107 193.811V155.144L141.705 115.523L179.872 77.3333H218.516L256.683 39.144L294.85 0.954732H297.235L258.114 40.0988V78.7654L218.993 117.909H180.349L142.182 156.099V192.379L179.872 154.667H218.516L257.637 115.523L295.327 77.8107V38.1893L333.494 0H335.879L297.712 39.144V77.8107L259.545 116L297.235 153.712H335.879L374.046 191.901V194.288L334.925 155.144H296.281L258.114 116.955L219.947 155.144H181.303L143.136 193.333L104.969 231.523L142.659 269.235L180.826 231.045H219.47L219.947 230.568L258.591 191.901L297.235 230.568L297.712 231.045H337.787L298.189 270.667V309.333L260.022 347.523L298.189 385.712V424.856L337.31 464L375 501.712V504.099L336.356 465.432L296.758 425.811V386.667L259.068 348.955L220.901 387.144H182.257L142.659 426.765V386.667L104.492 348.477H68.2339L105.924 386.189V424.856L143.613 462.568L181.78 424.379H220.424L260.022 384.757V424.856L299.143 464L337.31 502.189V540.856L375 578.568V580.955L335.402 541.333V502.667L297.712 464.955L259.068 426.288L221.378 464L259.545 502.189V540.856L260.022 541.333L297.712 579.045L337.31 618.667V657.333L375 695.045V697.432L337.31 735.144V773.811L299.143 812H296.758L335.879 772.856V734.189L374.046 696L334.448 657.333ZM141.705 192.856V154.189L180.826 115.045H219.47L257.637 76.856V40.5761L219.947 78.2881H181.303L142.182 117.432L104.492 155.144V193.811L66.8026 231.523H103.061L141.705 192.856ZM-242.826 579.523L-205.136 617.234L-167.447 579.523L-205.136 541.811L-242.826 579.523ZM-283.378 463.523L-321.068 425.811L-358.758 463.523L-321.068 501.235L-283.378 463.523ZM-320.114 579.523L-282.424 617.234H-243.78L-206.09 654.946V618.667L-244.257 580.477H-284.333L-244.734 540.856V502.189L-206.568 464L-244.257 426.288H-282.901L-320.591 388.576V424.856L-282.424 463.045H-242.349L-281.947 502.667V541.333L-320.114 579.523ZM-90.6357 656.856L-90.1587 617.712L-51.9918 579.523L-90.1587 541.333V502.667L-128.326 464.477H-164.584L-126.894 502.189V540.856L-89.2045 578.568L-88.2503 579.523L-127.371 618.667V657.333L-165.061 695.045H-128.803L-90.6357 656.856ZM142.182 617.234L179.872 579.523L142.182 541.811L104.492 579.523L142.182 617.234ZM27.6815 579.523L65.8484 617.712V656.379L105.447 696H65.3713L64.8942 696.477L27.2045 734.189L26.2503 735.144L25.2961 734.189L-12.3936 696.477H-51.5147V695.045H-12.3936L25.7732 656.856V620.576L-11.9166 658.288H-50.5605L-88.2503 696L-50.5605 733.712H-11.9166L26.2503 771.901L64.4171 733.712H103.061L140.751 696L102.584 657.811V619.144L62.9859 579.523H103.061L103.538 579.045L141.228 541.333L142.182 540.379L143.136 541.333L180.826 579.045H219.947V580.477H180.826L142.659 618.667V654.946L180.349 617.234H218.993L256.683 579.523L218.993 541.811H180.349L142.182 503.621L104.015 541.811H65.3713L27.6815 579.523ZM-10.9624 695.523L26.7274 733.235L64.4171 695.523L26.7274 657.811L-10.9624 695.523ZM26.2503 580.955L-11.9166 619.144H-50.5605L-88.7274 657.333L-89.6815 658.288L-127.371 696L-89.6815 733.712L-88.7274 734.667L-51.0376 772.379H-12.3936L25.7732 810.568L63.9401 772.379H102.584L140.751 734.189L141.705 733.235L179.872 695.045H218.516L218.993 694.568L256.683 656.856V620.576L218.993 658.288H180.349L142.659 696L141.705 696.955L103.538 735.144H64.8942L27.2045 772.856L26.2503 773.811L25.2961 772.856L-12.3936 735.144H-51.0376L-89.2045 696.955L-90.1587 696L-89.2045 695.045L-51.0376 656.856H-12.3936L27.2045 617.234V657.333L27.6815 657.811L65.3713 695.523H101.63L63.9401 657.811V619.144L26.2503 580.955ZM259.068 270.667V309.333L219.947 348.477H181.303L180.826 348.955L143.136 386.667V422.946L180.826 385.235H219.47L258.591 346.091L296.281 308.379V269.712L333.971 232H297.712L259.068 270.667ZM181.78 270.667V309.333L142.182 348.955L103.061 309.811H64.4171L26.7274 272.099V308.379L64.4171 346.091L64.8942 346.568H103.538L141.705 384.757L179.395 347.045L218.516 307.901V269.235L258.114 229.613L259.068 230.568L219.947 269.712V308.379L182.257 346.091H218.516L256.683 307.901V269.235L294.85 231.045L257.16 193.333L219.47 231.045L181.78 270.667ZM26.2503 232.955L-11.4395 270.667V309.333L-49.1292 347.045H-12.3936L25.7732 308.856V268.757L65.3713 308.379H104.015L142.182 346.568L179.872 308.856V270.189L217.562 232.477H181.303L143.136 270.667V310.765L103.538 271.144H64.8942L26.2503 232.955ZM-12.3936 348.955L-52.4689 348.477L-12.8707 308.856V270.189L25.2961 232L-12.3936 193.811H-51.0376L-88.7274 156.576V192.856L-51.0376 230.568L-50.5605 231.045H-10.4853L-50.0834 270.667V309.333L-88.2503 347.523L-50.5605 385.235H-11.9166L25.7732 422.946V386.667L-12.3936 348.955ZM-90.1587 192.856V152.757L-50.5605 192.379H-11.9166L26.2503 230.568L63.9401 192.856V154.189L101.63 116.477H65.3713L27.2045 154.667V194.765L-12.3936 155.144H-51.0376L-89.2045 116.955L-126.894 154.667V193.333L-164.584 231.045H-128.326L-90.1587 192.856ZM-89.2045 269.235L-51.5147 231.523L-89.2045 193.811L-126.894 232L-89.2045 269.235ZM-205.136 232.955L-244.734 193.333V154.667L-284.333 115.045H-244.257L-243.78 114.568L-206.09 76.856V40.5761L-243.78 78.2881H-282.424L-320.114 116L-281.947 154.189V192.856L-204.659 270.189L-166.492 308.379H-127.848L-89.6815 346.568L-51.9918 308.856V270.189L-14.302 232.477H-50.5605L-88.7274 270.667V310.765L-128.326 271.144H-166.969L-205.136 232.955ZM-242.826 116L-205.136 153.712L-167.447 116L-205.136 78.2881L-242.826 116ZM26.2503 501.235L63.9401 463.523L26.2503 425.811L25.7732 425.333L-12.3936 387.144H-51.0376L-89.2045 348.955L-128.326 309.811H-166.969L-204.659 272.099V308.379L-166.492 346.568H-127.848L-89.6815 384.757L-50.5605 423.901H-11.9166L27.6815 463.523L26.7274 464.477L-12.3936 425.811H-51.0376L-89.2045 387.621L-128.326 348.477H-166.969L-206.09 309.333V270.667L-283.378 193.333V154.667L-321.068 116.955L-322.022 116L-321.068 115.045L-282.901 76.856H-244.257L-204.659 37.2346V77.3333L-165.538 116.477L-204.659 155.621V194.765H-206.09V155.621L-244.257 117.432H-280.516L-242.826 155.144V193.811L-205.136 231.523L-167.447 193.811V155.144L-129.28 116.955L-167.447 78.7654V39.144L-205.136 1.4321L-243.303 39.6214H-281.947L-320.114 77.8107L-358.281 116L-320.114 154.189V192.856L-282.424 230.568L-242.826 270.189V308.856L-205.136 346.568L-166.015 385.712H-127.371L-89.2045 423.901L-50.5605 462.568V463.045H-11.9166L26.2503 501.235ZM141.228 463.523L103.061 425.333V386.667L63.9401 347.523L26.2503 310.288L-11.4395 348L26.7274 386.189V424.856L64.8942 463.045H101.153L63.463 425.333V386.667L24.3419 347.523L25.2961 346.568L64.8942 386.189V424.856L104.492 464.477H64.4171L63.9401 464.955L26.2503 502.667V538.946L63.9401 501.235H102.584L141.228 463.523ZM257.637 502.667L219.47 464.477H180.349V463.045H219.47L257.637 424.856V388.576L219.947 426.288H181.303L143.613 464L181.303 501.712H219.947L257.637 539.424V502.667ZM334.448 579.523L374.046 619.144V616.757L336.356 579.045L297.235 539.901V501.235L257.637 461.613L256.683 462.568L295.804 501.712V540.379L334.448 579.523ZM-166.492 771.901L-204.182 734.189L-205.136 733.235L-206.09 734.189L-243.78 771.901H-282.424L-322.022 811.523H-319.637L-281.947 773.811H-243.303L-205.136 735.621L-166.969 773.811H-128.326L-90.6357 811.523H-88.2503L-127.848 771.901H-166.492ZM374.046 773.811V771.424L334.448 811.045H336.833L374.046 773.811ZM-205.136 771.901L-206.09 772.856L-244.734 811.523H-242.349L-204.659 773.811L-166.969 811.523H-164.584L-203.228 772.856L-205.136 771.901ZM-437 230.568V232.955L-436.046 232L-437 230.568ZM-437 37.7119V40.0988L-397.402 0H-399.31L-437 37.7119ZM-359.235 773.333V734.667L-320.114 695.523L-321.068 694.568L-360.666 734.189V772.856L-399.31 811.523H-396.925L-359.235 773.333ZM-205.136 810.568L-206.09 811.523H-203.705L-205.136 810.568Z" fill="url(#paint0_radial)"/>
<defs>
<radialGradient id="paint0_radial" cx="0" cy="0" r="1" gradientUnits="userSpaceOnUse" gradientTransform="translate(294.298 812) rotate(-103.369) scale(818.686 943.401)">
<stop stop-color="#172129" stop-opacity="0.6"/>
<stop offset="0.246486" stop-color="#172129" stop-opacity="0.8"/>
<stop offset="0.509274" stop-color="#172129" stop-opacity="0.9"/>
</radialGradient>
</defs>
</svg>
